<svg viewBox="0 0 18 18" xmlns="http://www.w3.org/2000/svg" xmlns:xlink="http://www.w3.org/1999/xlink" width="18.000000" height="18.000000" fill="none" customFrame="#000000">
	<defs>
		<clipPath id="clipPath_3">
			<rect width="18.000000" height="18.000000" x="0.000000" y="0.000000" fill="rgb(255,255,255)" />
		</clipPath>
		<clipPath id="clipPath_4">
			<rect width="18.000000" height="18.000000" x="0.000000" y="0.000000" fill="rgb(255,255,255)" />
		</clipPath>
		<clipPath id="clipPath_5">
			<rect width="18.000000" height="18.000000" x="0.000000" y="0.000000" fill="rgb(255,255,255)" />
		</clipPath>
	</defs>
	<rect id="Icons/Home" width="18.000000" height="18.000000" x="0.000000" y="0.000000" fill="rgb(255,255,255)" fill-opacity="0" />
	<g id="Icons/Home" customFrame="url(#clipPath_3)">
		<rect id="Icons/Home" width="18.000000" height="18.000000" x="0.000000" y="0.000000" fill="rgb(255,255,255)" fill-opacity="0" />
		<g id="Icons/Home" customFrame="url(#clipPath_4)">
			<rect id="Icons/Home" width="18.000000" height="18.000000" x="0.000000" y="0.000000" fill="rgb(255,255,255)" fill-opacity="0" />
			<g id="Icons/Home" clip-path="url(#clipPath_5)" customFrame="url(#clipPath_5)">
				<rect id="Icons/Home" width="18.000000" height="18.000000" x="0.000000" y="0.000000" fill="rgb(255,255,255)" fill-opacity="0" />
				<path id="Vector" d="M0 0L18 0L18 18L0 18L0 0Z" fill-rule="nonzero" />
				<path id="Vector" d="M15 14.9999C15 15.1989 14.921 15.3896 14.7803 15.5303C14.6397 15.6709 14.4489 15.7499 14.25 15.7499L3.75 15.7499C3.55109 15.7499 3.36032 15.6709 3.21967 15.5303C3.07902 15.3896 3 15.1989 3 14.9999L3 8.24994L0.75 8.24994L8.49525 1.20894C8.63333 1.0833 8.81331 1.01367 9 1.01367C9.18669 1.01367 9.36667 1.0833 9.50475 1.20894L17.25 8.24994L15 8.24994L15 14.9999Z" fill="rgb(43,43,43)" fill-rule="nonzero" />
			</g>
		</g>
	</g>
</svg>
