<svg viewBox="0 0 18 18" xmlns="http://www.w3.org/2000/svg" xmlns:xlink="http://www.w3.org/1999/xlink" width="18.000000" height="18.000000" fill="none" customFrame="#000000">
	<defs>
		<clipPath id="clipPath_11">
			<rect width="18.000000" height="18.000000" x="0.000000" y="0.000000" fill="rgb(255,255,255)" />
		</clipPath>
		<clipPath id="clipPath_12">
			<rect width="18.000000" height="18.000000" x="0.000000" y="0.000000" fill="rgb(255,255,255)" />
		</clipPath>
		<clipPath id="clipPath_13">
			<rect width="18.000000" height="18.000000" x="0.000000" y="0.000000" fill="rgb(255,255,255)" />
		</clipPath>
		<clipPath id="clipPath_14">
			<rect width="100.000000" height="100.000000" x="-46.000000" y="-44.000000" fill="rgb(255,255,255)" />
		</clipPath>
	</defs>
	<rect id="Icons/Portfolio" width="18.000000" height="18.000000" x="0.000000" y="0.000000" fill="rgb(255,255,255)" fill-opacity="0" />
	<g id="Icons/Portfolio" customFrame="url(#clipPath_11)">
		<rect id="Icons/Portfolio" width="18.000000" height="18.000000" x="0.000000" y="0.000000" fill="rgb(255,255,255)" fill-opacity="0" />
		<g id="Icons/Portfolio" customFrame="url(#clipPath_12)">
			<rect id="Icons/Portfolio" width="18.000000" height="18.000000" x="0.000000" y="0.000000" fill="rgb(255,255,255)" fill-opacity="0" />
			<g id="Icons/Portfolio" clip-path="url(#clipPath_13)" customFrame="url(#clipPath_13)">
				<rect id="Icons/Portfolio" width="18.000000" height="18.000000" x="0.000000" y="0.000000" fill="rgb(114,114,114)" fill-opacity="0" />
				<path id="Vector" d="M0 0L18 0L18 18L0 18L0 0Z" fill-rule="nonzero" />
				<path id="Vector" d="M6.75 9.75L6.75 12L11.25 12L11.25 9.75L16.5 9.75L16.5 15C16.5 15.1989 16.421 15.3897 16.2803 15.5303C16.1397 15.671 15.9489 15.75 15.75 15.75L2.25 15.75C2.05109 15.75 1.86032 15.671 1.71967 15.5303C1.57902 15.3897 1.5 15.1989 1.5 15L1.5 9.75L6.75 9.75ZM8.25 8.25L9.75 8.25L9.75 10.5L8.25 10.5L8.25 8.25ZM5.25 3.75L5.25 1.5C5.25 1.30109 5.32902 1.11032 5.46967 0.96967C5.61032 0.829018 5.80109 0.75 6 0.75L12 0.75C12.1989 0.75 12.3897 0.829018 12.5303 0.96967C12.671 1.11032 12.75 1.30109 12.75 1.5L12.75 3.75L15.75 3.75C15.9489 3.75 16.1397 3.82902 16.2803 3.96967C16.421 4.11032 16.5 4.30109 16.5 4.5L16.5 8.25L11.25 8.25L11.25 6.75L6.75 6.75L6.75 8.25L1.5 8.25L1.5 4.5C1.5 4.30109 1.57902 4.11032 1.71967 3.96967C1.86032 3.82902 2.05109 3.75 2.25 3.75L5.25 3.75ZM6.75 2.25L6.75 3.75L11.25 3.75L11.25 2.25L6.75 2.25Z" fill="rgb(118,118,118)" fill-rule="nonzero" />
				<g id="Frame 1" clip-path="url(#clipPath_14)" customFrame="url(#clipPath_14)">
					<rect id="Frame 1" width="100.000000" height="100.000000" x="-46.000000" y="-44.000000" />
				</g>
			</g>
		</g>
	</g>
</svg>
